<?xml version="1.0" standalone="no"?>
<!DOCTYPE svg PUBLIC "-//W3C//DTD SVG 20010904//EN"
 "http://www.w3.org/TR/2001/REC-SVG-20010904/DTD/svg10.dtd">
<svg version="1.0" xmlns="http://www.w3.org/2000/svg"
 width="215.000000pt" height="144.000000pt" viewBox="0 0 215.000000 144.000000"
 preserveAspectRatio="xMidYMid meet">

<g transform="translate(0.000000,144.000000) scale(0.100000,-0.100000)"
fill="#000000" stroke="none">
<path d="M690 1271 c-275 -89 -438 -248 -455 -441 l-5 -65 18 51 c56 158 191
278 401 357 50 19 65 31 95 75 20 28 35 52 34 52 -2 -1 -41 -13 -88 -29z"/>
<path d="M1385 1255 c18 -24 35 -48 36 -52 2 -5 39 -22 81 -37 195 -70 343
-204 383 -346 l15 -55 -4 68 c-6 100 -47 177 -141 265 -85 79 -211 148 -332
181 l-72 19 34 -43z"/>
<path d="M1790 1100 c104 -108 155 -256 132 -382 -15 -79 -59 -172 -109 -228
-22 -25 -45 -61 -52 -80 -6 -19 -27 -63 -45 -97 -19 -35 -32 -63 -29 -63 2 0
35 20 71 44 77 49 176 150 214 216 104 179 66 376 -102 540 -98 96 -164 137
-80 50z"/>
<path d="M275 1048 c-59 -60 -91 -103 -116 -153 -32 -66 -34 -75 -34 -175 0
-103 1 -108 39 -184 45 -91 129 -182 225 -245 35 -22 65 -40 67 -39 8 9 -90
185 -129 228 -25 30 -61 83 -79 119 -32 63 -33 71 -33 181 0 108 2 119 31 180
17 36 52 89 78 118 73 80 43 62 -49 -30z"/>
<path d="M481 909 c-76 -30 -121 -96 -121 -179 0 -67 29 -123 82 -157 36 -24
52 -28 113 -28 48 0 84 6 113 19 l42 19 0 79 0 78 -45 0 -45 0 0 -49 c0 -42
-3 -49 -22 -55 -45 -12 -70 -6 -99 23 -41 41 -41 101 0 142 35 35 81 38 128
10 l32 -20 25 34 c14 18 26 38 26 43 0 5 -22 19 -49 31 -53 22 -137 27 -180
10z"/>
<path d="M822 900 c-44 -27 -64 -76 -51 -123 11 -41 36 -60 112 -82 57 -16 84
-36 72 -55 -11 -18 -81 -11 -128 15 l-47 24 -20 -39 -20 -39 24 -17 c35 -22
112 -44 157 -44 105 0 173 78 139 161 -14 32 -46 53 -125 78 -51 16 -72 45
-41 57 14 6 65 -8 118 -30 13 -6 22 2 38 33 l21 42 -43 19 c-60 27 -161 27
-206 0z"/>
<path d="M1180 911 c-44 -14 -90 -41 -90 -54 0 -10 11 -31 35 -65 2 -2 19 7
38 18 42 25 90 23 95 -2 2 -11 -28 -51 -77 -103 -69 -73 -81 -91 -81 -120 l0
-35 140 0 140 0 0 40 0 40 -72 0 -72 0 50 53 c70 71 84 95 84 139 0 76 -91
119 -190 89z"/>
<path d="M1430 735 l0 -185 155 0 155 0 0 40 0 40 -100 0 -100 0 0 30 0 30 85
0 85 0 0 40 0 40 -85 0 -85 0 0 30 0 30 95 0 95 0 0 45 0 45 -150 0 -150 0 0
-185z"/>
</g>
</svg>
