<?xml version="1.0" encoding="UTF-8"?>
<!DOCTYPE svg PUBLIC "-//W3C//DTD SVG 1.1//EN" "http://www.w3.org/Graphics/SVG/1.1/DTD/svg11.dtd">
<svg xmlns="http://www.w3.org/2000/svg" version="1.1" width="1156px" height="494px" style="shape-rendering:geometricPrecision; text-rendering:geometricPrecision; image-rendering:optimizeQuality; fill-rule:evenodd; clip-rule:evenodd" xmlns:xlink="http://www.w3.org/1999/xlink">
<g><path style="opacity:0.991" fill="#fd7705" d="M 520.5,-0.5 C 558.5,-0.5 596.5,-0.5 634.5,-0.5C 736.916,2.59572 837.916,16.7624 937.5,42C 990.763,55.8068 1041.1,76.4735 1088.5,104C 1108.46,116.285 1125.62,131.785 1140,150.5C 1147.4,161.29 1152.57,172.956 1155.5,185.5C 1155.5,193.5 1155.5,201.5 1155.5,209.5C 1151.56,225.389 1144.39,239.722 1134,252.5C 1107.91,279.904 1077.41,301.071 1042.5,316C 991.63,338.22 938.964,354.886 884.5,366C 681.565,406.203 478.565,406.536 275.5,367C 218.559,355.684 163.559,338.351 110.5,315C 85.3164,303.443 61.9831,289.109 40.5,272C 25.4059,259.278 13.5726,244.111 5,226.5C 2.99182,220.768 1.15849,215.102 -0.5,209.5C -0.5,201.5 -0.5,193.5 -0.5,185.5C 3.53228,169.103 11.0323,154.436 22,141.5C 49.7896,112.841 82.2896,91.0074 119.5,76C 173.092,53.6926 228.426,37.026 285.5,26C 363.303,11.1148 441.636,2.28145 520.5,-0.5 Z"/></g>
<g><path style="opacity:1" fill="#fefefe" d="M 534.5,19.5 C 647.38,15.2677 759.046,24.7677 869.5,48C 912.412,57.9604 954.078,71.6271 994.5,89C 1025.39,102.184 1052.56,120.684 1076,144.5C 1105.64,179.167 1105.98,214.167 1077,249.5C 1050.84,276.012 1020.34,296.179 985.5,310C 932.606,331.846 877.939,347.512 821.5,357C 681.795,379.365 541.795,381.365 401.5,363C 342.184,354.338 284.184,340.338 227.5,321C 188.991,307.588 153.991,288.255 122.5,263C 105.305,248.105 94.1383,229.605 89,207.5C 86.7969,189.849 90.4636,173.515 100,158.5C 106.081,149.748 112.914,141.582 120.5,134C 154.088,106.363 191.755,85.6965 233.5,72C 307.599,47.2467 383.599,31.5801 461.5,25C 485.975,22.9667 510.308,21.1334 534.5,19.5 Z"/></g>
<g><path style="opacity:1" fill="#32a53d" d="M 504.5,109.5 C 511.508,109.334 518.508,109.5 525.5,110C 538.175,112.503 550.842,115.003 563.5,117.5C 569.333,118.252 573.333,115.919 575.5,110.5C 578.086,109.52 580.753,109.187 583.5,109.5C 585.747,127.141 587.747,144.808 589.5,162.5C 586.833,162.5 584.167,162.5 581.5,162.5C 575.825,143.324 563.491,130.49 544.5,124C 529.096,118.276 513.763,118.276 498.5,124C 484.679,131.489 481.845,141.989 490,155.5C 495.369,161.1 501.535,165.6 508.5,169C 528.955,178.394 549.288,188.06 569.5,198C 578.213,202.715 585.713,208.882 592,216.5C 602.549,239.246 597.049,257.079 575.5,270C 556.67,279.82 536.67,283.486 515.5,281C 501.597,279.274 487.93,276.441 474.5,272.5C 468.626,272.708 465.293,275.708 464.5,281.5C 461.833,281.5 459.167,281.5 456.5,281.5C 453.592,263.809 450.592,246.143 447.5,228.5C 450.247,228.187 452.914,228.52 455.5,229.5C 474.794,264.773 504.127,277.94 543.5,269C 562.038,261.712 567.538,248.879 560,230.5C 557.167,227.667 554.333,224.833 551.5,222C 527.081,209.124 502.414,196.791 477.5,185C 468.172,179.339 461.339,171.506 457,161.5C 454.039,143.588 460.206,129.755 475.5,120C 484.608,114.578 494.275,111.078 504.5,109.5 Z"/></g>
<g><path style="opacity:1" fill="#33a53e" d="M 294.5,110.5 C 307.504,110.333 320.504,110.5 333.5,111C 347.742,113.115 361.908,115.615 376,118.5C 381.837,118.665 386.337,116.332 389.5,111.5C 392.428,110.516 395.428,110.183 398.5,110.5C 398.922,127.844 399.588,145.177 400.5,162.5C 397.813,162.664 395.146,162.497 392.5,162C 381.677,140.849 364.677,127.515 341.5,122C 311.675,115.896 284.675,121.896 260.5,140C 248.154,151.86 240.987,166.36 239,183.5C 235.579,234.76 259.413,263.926 310.5,271C 330.144,272.604 349.144,269.937 367.5,263C 368.333,262.167 369.167,261.333 370,260.5C 370.962,241.435 370.628,222.435 369,203.5C 367.332,199.835 364.499,197.668 360.5,197C 354.215,195.73 347.882,194.897 341.5,194.5C 341.5,192.833 341.5,191.167 341.5,189.5C 369.833,189.5 398.167,189.5 426.5,189.5C 426.5,191.167 426.5,192.833 426.5,194.5C 420.511,194.198 414.845,195.364 409.5,198C 407.622,199.543 406.122,201.376 405,203.5C 403.702,223.436 403.036,243.436 403,263.5C 401.786,265.049 400.286,266.215 398.5,267C 355.603,283.033 311.936,285.699 267.5,275C 241.933,267.731 221.766,253.231 207,231.5C 190.77,192.524 199.27,160.024 232.5,134C 251.186,120.819 271.853,112.985 294.5,110.5 Z"/></g>
<g><path style="opacity:1" fill="#32a53d" d="M 760.5,277.5 C 717.167,277.5 673.833,277.5 630.5,277.5C 630.5,276.5 630.5,275.5 630.5,274.5C 660.592,252.59 689.092,228.59 716,202.5C 720.831,196.174 725.165,189.508 729,182.5C 738.259,156.188 729.759,138.688 703.5,130C 673.673,123.253 651.673,133.253 637.5,160C 635.19,160.497 632.857,160.663 630.5,160.5C 637.719,132.455 655.719,115.955 684.5,111C 696.21,110.139 707.877,110.473 719.5,112C 734.652,114.818 746.818,122.318 756,134.5C 763.814,150.158 763.147,165.491 754,180.5C 746.203,190.631 737.37,199.797 727.5,208C 706.455,225.38 685.122,242.38 663.5,259C 694.19,259.918 724.857,259.585 755.5,258C 763.754,255.083 770.254,249.917 775,242.5C 776.205,243.071 777.372,243.738 778.5,244.5C 772.726,255.722 766.726,266.722 760.5,277.5 Z"/></g>
<g><path style="opacity:1" fill="#97d19d" d="M 969.5,113.5 C 910.167,113.5 850.833,113.5 791.5,113.5C 791.5,114.833 791.5,116.167 791.5,117.5C 790.549,116.081 790.216,114.415 790.5,112.5C 850.336,112.168 910.002,112.501 969.5,113.5 Z"/></g>
<g><path style="opacity:1" fill="#32a53d" d="M 969.5,113.5 C 970.269,125.15 970.602,136.817 970.5,148.5C 967.5,148.5 964.5,148.5 961.5,148.5C 957.899,129.335 946.232,120.835 926.5,123C 903.833,122.333 881.167,122.333 858.5,123C 856.667,123.5 855.5,124.667 855,126.5C 854.5,146.497 854.333,166.497 854.5,186.5C 875.836,186.667 897.169,186.5 918.5,186C 925.84,186.136 932.006,183.636 937,178.5C 939.483,173.523 941.65,168.523 943.5,163.5C 945.833,163.5 948.167,163.5 950.5,163.5C 950.5,182.5 950.5,201.5 950.5,220.5C 948.076,220.808 945.743,220.474 943.5,219.5C 941.594,212.519 938.261,206.352 933.5,201C 928.754,198.73 923.754,197.563 918.5,197.5C 897.34,196.503 876.007,196.169 854.5,196.5C 854.169,218.34 854.503,240.006 855.5,261.5C 856.946,265.578 859.946,267.744 864.5,268C 888.553,269.039 912.553,268.372 936.5,266C 951.296,264.189 963.129,257.355 972,245.5C 974.029,242.971 975.862,240.304 977.5,237.5C 980.784,236.343 984.118,236.176 987.5,237C 982.603,250.522 977.603,264.022 972.5,277.5C 912.17,278.5 851.837,278.833 791.5,278.5C 791.5,276.833 791.5,275.167 791.5,273.5C 800.222,273.366 808.555,271.532 816.5,268C 817.46,266.581 818.293,265.081 819,263.5C 820.151,240.895 820.651,218.228 820.5,195.5C 820.651,172.772 820.151,150.105 819,127.5C 817.878,125.376 816.378,123.543 814.5,122C 807.038,119.442 799.372,117.942 791.5,117.5C 791.5,116.167 791.5,114.833 791.5,113.5C 850.833,113.5 910.167,113.5 969.5,113.5 Z"/></g>
<g><path style="opacity:1" fill="#7dc684" d="M 943.5,163.5 C 945.948,162.527 948.615,162.194 951.5,162.5C 951.83,182.007 951.497,201.341 950.5,220.5C 950.5,201.5 950.5,182.5 950.5,163.5C 948.167,163.5 945.833,163.5 943.5,163.5 Z"/></g>
<g><path style="opacity:1" fill="#e2f2e3" d="M 918.5,197.5 C 897.5,197.5 876.5,197.5 855.5,197.5C 855.5,218.833 855.5,240.167 855.5,261.5C 854.503,240.006 854.169,218.34 854.5,196.5C 876.007,196.169 897.34,196.503 918.5,197.5 Z"/></g>
<g><path style="opacity:1" fill="#63ba6c" d="M 630.5,274.5 C 630.5,275.5 630.5,276.5 630.5,277.5C 673.833,277.5 717.167,277.5 760.5,277.5C 717.003,278.499 673.337,278.832 629.5,278.5C 629.232,276.901 629.566,275.568 630.5,274.5 Z"/></g>
<g><path style="opacity:0.983" fill="#3a9d44" d="M -0.5,415.5 C 384.833,415.5 770.167,415.5 1155.5,415.5C 1155.5,441.5 1155.5,467.5 1155.5,493.5C 830.167,493.5 504.833,493.5 179.5,493.5C 180.172,492.733 181.005,492.066 182,491.5C 182.333,486.833 182.667,482.167 183,477.5C 190.204,482.501 195.537,480.834 199,472.5C 201.813,463.365 200.646,454.865 195.5,447C 189.733,444.3 184.9,445.467 181,450.5C 180.506,448.866 180.34,447.199 180.5,445.5C 178.533,445.261 176.699,445.594 175,446.5C 174.833,454.167 174.667,461.833 174.5,469.5C 174.532,477.733 175.199,485.733 176.5,493.5C 117.5,493.5 58.5,493.5 -0.5,493.5C -0.5,467.5 -0.5,441.5 -0.5,415.5 Z"/></g>
<g><path style="opacity:1" fill="#f6fbf7" d="M 1066.5,430.5 C 1068.5,430.5 1070.5,430.5 1072.5,430.5C 1071.47,434.217 1069.64,437.55 1067,440.5C 1065.3,441.406 1063.47,441.739 1061.5,441.5C 1062.36,437.452 1064.02,433.785 1066.5,430.5 Z"/></g>
<g><path style="opacity:1" fill="#fbfdfb" d="M 393.5,430.5 C 395.467,430.261 397.301,430.594 399,431.5C 399.667,447.5 399.667,463.5 399,479.5C 395.613,481.318 393.613,480.318 393,476.5C 384.015,483.379 378.015,481.379 375,470.5C 373.603,462.769 374.603,455.436 378,448.5C 382.667,444.5 387.333,444.5 392,448.5C 392.209,442.419 392.709,436.419 393.5,430.5 Z"/></g>
<g><path style="opacity:1" fill="#fcfdfc" d="M 872.5,430.5 C 874.792,430.244 876.959,430.577 879,431.5C 879.667,447.5 879.667,463.5 879,479.5C 876.959,480.423 874.792,480.756 872.5,480.5C 872.5,463.833 872.5,447.167 872.5,430.5 Z"/></g>
<g><path style="opacity:1" fill="#ecf5ec" d="M 577.5,432.5 C 584.107,430.749 586.607,433.082 585,439.5C 577.701,442.707 575.201,440.373 577.5,432.5 Z"/></g>
<g><path style="opacity:1" fill="#f7fbf8" d="M 981.5,432.5 C 988.676,431.985 990.342,434.818 986.5,441C 984.765,441.651 983.098,441.485 981.5,440.5C 980.271,437.801 980.271,435.135 981.5,432.5 Z"/></g>
<g><path style="opacity:1" fill="#f1f8f1" d="M 1019.5,432.5 C 1021.83,432.5 1024.17,432.5 1026.5,432.5C 1026.66,435.187 1026.5,437.854 1026,440.5C 1019.07,442.057 1016.9,439.39 1019.5,432.5 Z"/></g>
<g><path style="opacity:1" fill="#f7fbf7" d="M 77.5,471.5 C 78.4816,468.038 78.815,464.371 78.5,460.5C 75.8333,460.5 73.1667,460.5 70.5,460.5C 69.232,458.33 69.232,456.163 70.5,454C 75.419,453.198 80.2523,453.365 85,454.5C 85.6667,462.167 85.6667,469.833 85,477.5C 65.4997,485.002 55.333,478.336 54.5,457.5C 53.502,446.659 57.8353,438.825 67.5,434C 73.9238,432.607 79.7571,433.773 85,437.5C 85.4966,439.81 85.6633,442.143 85.5,444.5C 68.1346,437.68 60.3012,443.68 62,462.5C 64.2653,470.992 69.432,473.992 77.5,471.5 Z"/></g>
<g><path style="opacity:1" fill="#f8fbf8" d="M 478.5,433.5 C 482.605,433.234 486.605,433.734 490.5,435C 492.314,437.481 492.98,440.315 492.5,443.5C 489.769,442.393 486.936,441.393 484,440.5C 477.342,442.984 476.842,446.484 482.5,451C 494.172,455.846 497.338,464.013 492,475.5C 485.803,481.104 478.969,481.937 471.5,478C 470.217,475.205 470.217,472.372 471.5,469.5C 474.928,472.719 478.928,473.885 483.5,473C 486.29,470.79 487.123,467.956 486,464.5C 483.436,462.273 480.603,460.439 477.5,459C 471.402,453.296 469.902,446.462 473,438.5C 474.73,436.598 476.563,434.931 478.5,433.5 Z"/></g>
<g><path style="opacity:1" fill="#f3f9f4" d="M 682.5,434.5 C 689.5,434.5 696.5,434.5 703.5,434.5C 703.756,436.792 703.423,438.959 702.5,441C 698.179,441.499 693.846,441.666 689.5,441.5C 689.5,445.167 689.5,448.833 689.5,452.5C 693.182,452.335 696.848,452.501 700.5,453C 701.423,455.041 701.756,457.208 701.5,459.5C 697.5,459.5 693.5,459.5 689.5,459.5C 689.5,463.833 689.5,468.167 689.5,472.5C 694.167,472.5 698.833,472.5 703.5,472.5C 703.768,475.119 703.435,477.619 702.5,480C 696.167,480.667 689.833,480.667 683.5,480C 683,479.5 682.5,479 682,478.5C 681.185,463.759 681.351,449.092 682.5,434.5 Z"/></g>
<g><path style="opacity:1" fill="#fcfdfc" d="M 845.5,434.5 C 852.167,434.5 858.833,434.5 865.5,434.5C 865.5,436.833 865.5,439.167 865.5,441.5C 860.833,441.5 856.167,441.5 851.5,441.5C 851.5,445.167 851.5,448.833 851.5,452.5C 855.5,452.5 859.5,452.5 863.5,452.5C 863.5,454.833 863.5,457.167 863.5,459.5C 859.5,459.5 855.5,459.5 851.5,459.5C 851.5,463.833 851.5,468.167 851.5,472.5C 856.179,472.334 860.845,472.501 865.5,473C 866.423,475.041 866.756,477.208 866.5,479.5C 859.167,479.5 851.833,479.5 844.5,479.5C 844.184,464.422 844.517,449.422 845.5,434.5 Z"/></g>
<g><path style="opacity:1" fill="#fafcfa" d="M 344.5,437.5 C 346.467,437.261 348.301,437.594 350,438.5C 350.497,441.146 350.664,443.813 350.5,446.5C 352.833,446.5 355.167,446.5 357.5,446.5C 358.833,452.5 356.5,454.833 350.5,453.5C 350.334,459.509 350.501,465.509 351,471.5C 351.388,472.428 352.055,473.095 353,473.5C 354.44,472.852 355.94,472.519 357.5,472.5C 358.147,480.003 354.814,482.503 347.5,480C 346.667,479.167 345.833,478.333 345,477.5C 343.637,469.571 343.137,461.571 343.5,453.5C 342.167,453.5 340.833,453.5 339.5,453.5C 339.5,451.167 339.5,448.833 339.5,446.5C 340.833,446.5 342.167,446.5 343.5,446.5C 343.264,443.391 343.597,440.391 344.5,437.5 Z"/></g>
<g><path style="opacity:1" fill="#f7fbf7" d="M 818.5,438.5 C 818.5,441.167 818.5,443.833 818.5,446.5C 820.5,446.5 822.5,446.5 824.5,446.5C 825.468,448.607 825.802,450.941 825.5,453.5C 823.5,453.5 821.5,453.5 819.5,453.5C 819.334,459.842 819.5,466.175 820,472.5C 821.458,473.747 822.958,473.747 824.5,472.5C 825.833,474.833 825.833,477.167 824.5,479.5C 821.092,480.894 817.759,480.728 814.5,479C 813.874,478.25 813.374,477.416 813,476.5C 812.5,468.841 812.334,461.174 812.5,453.5C 810.856,453.714 809.356,453.38 808,452.5C 807.211,450.288 807.378,448.288 808.5,446.5C 809.833,446.5 811.167,446.5 812.5,446.5C 812.5,443.833 812.5,441.167 812.5,438.5C 814.5,437.167 816.5,437.167 818.5,438.5 Z"/></g>
<g><path style="opacity:1" fill="#fafcfa" d="M 941.5,437.5 C 943.792,437.244 945.959,437.577 948,438.5C 948.497,441.146 948.664,443.813 948.5,446.5C 950.5,446.5 952.5,446.5 954.5,446.5C 954.5,448.833 954.5,451.167 954.5,453.5C 952.5,453.5 950.5,453.5 948.5,453.5C 948.334,459.509 948.501,465.509 949,471.5C 950.312,473.658 951.978,473.991 954,472.5C 955.921,480.075 953.088,482.575 945.5,480C 943.951,478.786 942.785,477.286 942,475.5C 941.5,468.174 941.334,460.841 941.5,453.5C 940.167,453.5 938.833,453.5 937.5,453.5C 937.5,451.167 937.5,448.833 937.5,446.5C 938.833,446.5 940.167,446.5 941.5,446.5C 941.5,443.5 941.5,440.5 941.5,437.5 Z"/></g>
<g><path style="opacity:1" fill="#f5faf5" d="M 1035.5,437.5 C 1037.5,437.5 1039.5,437.5 1041.5,437.5C 1041.5,440.5 1041.5,443.5 1041.5,446.5C 1043.83,446.5 1046.17,446.5 1048.5,446.5C 1048.5,448.833 1048.5,451.167 1048.5,453.5C 1046.17,453.5 1043.83,453.5 1041.5,453.5C 1041.33,459.509 1041.5,465.509 1042,471.5C 1043.52,473.62 1045.36,473.953 1047.5,472.5C 1048.78,475.034 1048.78,477.534 1047.5,480C 1041.52,481.928 1037.35,480.095 1035,474.5C 1034.5,467.508 1034.33,460.508 1034.5,453.5C 1031.51,453.845 1030.18,452.512 1030.5,449.5C 1030.18,446.488 1031.51,445.155 1034.5,445.5C 1034.28,442.721 1034.61,440.054 1035.5,437.5 Z"/></g>
<g><path style="opacity:1" fill="#99cc9f" d="M 812.5,438.5 C 812.5,441.167 812.5,443.833 812.5,446.5C 811.167,446.5 809.833,446.5 808.5,446.5C 809.209,445.596 810.209,445.263 811.5,445.5C 811.198,442.941 811.532,440.607 812.5,438.5 Z"/></g>
<g><path style="opacity:1" fill="#97cb9c" d="M 818.5,438.5 C 819.468,440.607 819.802,442.941 819.5,445.5C 821.415,445.216 823.081,445.549 824.5,446.5C 822.5,446.5 820.5,446.5 818.5,446.5C 818.5,443.833 818.5,441.167 818.5,438.5 Z"/></g>
<g><path style="opacity:1" fill="#fbfdfb" d="M 102.5,445.5 C 104.5,445.5 106.5,445.5 108.5,445.5C 108.817,448.572 108.484,451.572 107.5,454.5C 103.849,453.263 101.349,454.596 100,458.5C 99.5003,465.826 99.3337,473.159 99.5,480.5C 97.1667,480.5 94.8333,480.5 92.5,480.5C 92.5,469.167 92.5,457.833 92.5,446.5C 94.5,446.5 96.5,446.5 98.5,446.5C 98.3433,447.873 98.51,449.207 99,450.5C 99.9973,448.677 101.164,447.01 102.5,445.5 Z"/></g>
<g><path style="opacity:1" fill="#f9fcf9" d="M 119.5,445.5 C 127.514,443.761 133.347,446.428 137,453.5C 138.126,461.045 137.46,468.379 135,475.5C 129.665,480.623 123.498,481.79 116.5,479C 114.106,477.048 112.606,474.548 112,471.5C 111.333,465.833 111.333,460.167 112,454.5C 113.642,450.7 116.142,447.7 119.5,445.5 Z"/></g>
<g><path style="opacity:0.998" fill="#f4f9f4" d="M 179.5,493.5 C 178.5,493.5 177.5,493.5 176.5,493.5C 175.199,485.733 174.532,477.733 174.5,469.5C 174.667,461.833 174.833,454.167 175,446.5C 176.699,445.594 178.533,445.261 180.5,445.5C 180.34,447.199 180.506,448.866 181,450.5C 184.9,445.467 189.733,444.3 195.5,447C 200.646,454.865 201.813,463.365 199,472.5C 195.537,480.834 190.204,482.501 183,477.5C 182.667,482.167 182.333,486.833 182,491.5C 181.005,492.066 180.172,492.733 179.5,493.5 Z"/></g>
<g><path style="opacity:1" fill="#f7fbf7" d="M 212.5,445.5 C 226.026,445.197 231.359,451.697 228.5,465C 223.177,465.499 217.844,465.666 212.5,465.5C 211.616,469.49 212.949,472.323 216.5,474C 220.246,474.256 223.913,473.756 227.5,472.5C 227.662,474.527 227.495,476.527 227,478.5C 222.391,480.51 217.558,481.01 212.5,480C 208.51,478.01 206.01,474.843 205,470.5C 203.769,463.15 204.769,456.15 208,449.5C 209.397,447.93 210.897,446.596 212.5,445.5 Z"/></g>
<g><path style="opacity:1" fill="#f3f9f3" d="M 246.5,445.5 C 251.311,444.74 254.978,446.407 257.5,450.5C 259.316,449.185 260.983,447.685 262.5,446C 269.244,444.286 273.41,446.786 275,453.5C 275.667,462.167 275.667,470.833 275,479.5C 272.959,480.423 270.792,480.756 268.5,480.5C 268.666,472.493 268.5,464.493 268,456.5C 267.592,454.59 266.425,453.59 264.5,453.5C 262.272,454.219 260.439,455.552 259,457.5C 258.5,465.159 258.334,472.826 258.5,480.5C 256.208,480.756 254.041,480.423 252,479.5C 251.667,471.5 251.333,463.5 251,455.5C 248.034,452.735 245.367,453.068 243,456.5C 242.667,464.167 242.333,471.833 242,479.5C 239.667,480.833 237.333,480.833 235,479.5C 234.5,468.505 234.333,457.505 234.5,446.5C 236.5,446.5 238.5,446.5 240.5,446.5C 240.343,447.873 240.51,449.207 241,450.5C 242.73,448.598 244.563,446.931 246.5,445.5 Z"/></g>
<g><path style="opacity:1" fill="#f6faf7" d="M 289.5,445.5 C 302.993,445.286 307.993,451.786 304.5,465C 299.177,465.499 293.844,465.666 288.5,465.5C 287.822,469.273 289.156,472.106 292.5,474C 296.611,474.465 300.611,473.965 304.5,472.5C 305.128,476.158 303.794,478.658 300.5,480C 289.765,483.002 283.265,479.169 281,468.5C 279.027,458.907 281.86,451.24 289.5,445.5 Z"/></g>
<g><path style="opacity:1" fill="#f6faf6" d="M 312.5,445.5 C 314.167,445.5 315.833,445.5 317.5,445.5C 317.34,447.199 317.506,448.866 318,450.5C 323.027,444.286 328.36,443.953 334,449.5C 335.451,459.729 335.951,470.062 335.5,480.5C 333.208,480.756 331.041,480.423 329,479.5C 328.667,471.5 328.333,463.5 328,455.5C 324.4,452.646 321.4,453.313 319,457.5C 318.5,465.159 318.334,472.826 318.5,480.5C 316.208,480.756 314.041,480.423 312,479.5C 311.19,468.091 311.357,456.757 312.5,445.5 Z"/></g>
<g><path style="opacity:1" fill="#f8fcf9" d="M 413.5,445.5 C 421.001,443.833 426.168,446.5 429,453.5C 429.499,457.486 429.666,461.486 429.5,465.5C 423.833,465.5 418.167,465.5 412.5,465.5C 412.346,469.025 413.679,471.859 416.5,474C 420.623,474.437 424.623,473.937 428.5,472.5C 429.27,476.751 427.603,479.251 423.5,480C 414.297,482.762 408.464,479.596 406,470.5C 404.902,463.615 405.569,456.949 408,450.5C 409.73,448.598 411.563,446.931 413.5,445.5 Z"/></g>
<g><path style="opacity:1" fill="#f8fbf8" d="M 440.5,445.5 C 444.383,445.109 448.05,445.776 451.5,447.5C 452.466,449.396 452.799,451.396 452.5,453.5C 449.972,452.989 447.472,452.322 445,451.5C 442.5,451.333 441.333,452.5 441.5,455C 443.46,458.501 446.46,460.835 450.5,462C 453.849,466.478 454.349,471.312 452,476.5C 447.108,480.776 441.608,481.61 435.5,479C 434.223,476.534 434.223,474.034 435.5,471.5C 438.039,474.04 441.039,474.874 444.5,474C 446.602,472.267 446.935,470.267 445.5,468C 437.038,465.557 433.538,460.057 435,451.5C 436.36,448.977 438.193,446.977 440.5,445.5 Z"/></g>
<g><path style="opacity:1" fill="#f9fcf9" d="M 506.5,445.5 C 514.001,443.833 519.168,446.5 522,453.5C 522.499,457.486 522.666,461.486 522.5,465.5C 516.833,465.5 511.167,465.5 505.5,465.5C 505.346,469.025 506.679,471.859 509.5,474C 513.623,474.437 517.623,473.937 521.5,472.5C 522.27,476.751 520.603,479.251 516.5,480C 507.297,482.762 501.464,479.596 499,470.5C 497.902,463.615 498.569,456.949 501,450.5C 502.73,448.598 504.563,446.931 506.5,445.5 Z"/></g>
<g><path style="opacity:1" fill="#f9fcf9" d="M 538.5,445.5 C 540.5,445.5 542.5,445.5 544.5,445.5C 544.817,448.572 544.484,451.572 543.5,454.5C 542.232,453.572 540.899,453.405 539.5,454C 538.213,455.41 537.046,456.91 536,458.5C 535.5,465.826 535.334,473.159 535.5,480.5C 533.208,480.756 531.041,480.423 529,479.5C 528.5,468.505 528.333,457.505 528.5,446.5C 530.5,446.5 532.5,446.5 534.5,446.5C 534.343,447.873 534.51,449.207 535,450.5C 536.176,448.804 537.343,447.138 538.5,445.5 Z"/></g>
<g><path style="opacity:1" fill="#f9fcf9" d="M 598.5,445.5 C 602.584,445.043 606.417,445.71 610,447.5C 610.818,450.227 610.652,452.894 609.5,455.5C 605.055,451.209 601.222,451.542 598,456.5C 597.274,461.239 597.607,465.905 599,470.5C 602.883,474.463 606.549,474.13 610,469.5C 611.725,478.748 607.892,482.248 598.5,480C 594.512,478.552 592.012,475.719 591,471.5C 589.887,464.285 590.554,457.285 593,450.5C 594.73,448.598 596.563,446.931 598.5,445.5 Z"/></g>
<g><path style="opacity:1" fill="#f7fbf7" d="M 622.5,445.5 C 636.026,445.197 641.359,451.697 638.5,465C 633.177,465.499 627.844,465.666 622.5,465.5C 621.616,469.49 622.949,472.323 626.5,474C 630.246,474.256 633.913,473.756 637.5,472.5C 637.662,474.527 637.495,476.527 637,478.5C 632.391,480.51 627.558,481.01 622.5,480C 618.51,478.01 616.01,474.843 615,470.5C 613.769,463.15 614.769,456.15 618,449.5C 619.397,447.93 620.897,446.596 622.5,445.5 Z"/></g>
<g><path style="opacity:1" fill="#f6faf7" d="M 649.5,445.5 C 653.273,445.263 656.94,445.763 660.5,447C 661.423,449.041 661.756,451.208 661.5,453.5C 659.253,453.085 657.086,452.418 655,451.5C 649.734,452.974 649.234,455.474 653.5,459C 662.318,461.469 665.151,466.969 662,475.5C 657.445,480.644 651.945,481.81 645.5,479C 643.381,476.782 643.048,474.282 644.5,471.5C 647.501,473.844 650.835,474.677 654.5,474C 655.576,472.274 655.743,470.441 655,468.5C 652.749,466.623 650.249,465.123 647.5,464C 641.836,457.151 642.502,450.984 649.5,445.5 Z"/></g>
<g><path style="opacity:1" fill="#f8fbf8" d="M 713.5,445.5 C 717.514,445.334 721.514,445.501 725.5,446C 727.815,447.109 729.315,448.943 730,451.5C 730.5,461.161 730.666,470.828 730.5,480.5C 727.453,481.145 725.287,480.145 724,477.5C 711.496,483.56 706.162,479.56 708,465.5C 711.892,460.476 717.059,458.476 723.5,459.5C 724.171,453.335 721.504,450.835 715.5,452C 713.35,453.411 711.016,454.245 708.5,454.5C 708.338,452.473 708.505,450.473 709,448.5C 710.652,447.601 712.152,446.601 713.5,445.5 Z"/></g>
<g><path style="opacity:1" fill="#f8fbf8" d="M 788.5,445.5 C 802.026,445.197 807.359,451.697 804.5,465C 798.843,465.499 793.176,465.666 787.5,465.5C 787.245,469.493 788.911,472.326 792.5,474C 796.246,474.256 799.913,473.756 803.5,472.5C 803.662,474.527 803.495,476.527 803,478.5C 798.391,480.51 793.558,481.01 788.5,480C 783.617,477.736 781.117,473.902 781,468.5C 778.846,459.129 781.346,451.463 788.5,445.5 Z"/></g>
<g><path style="opacity:1" fill="#f9fcf9" d="M 893.5,445.5 C 906.982,445.256 911.982,451.756 908.5,465C 903.177,465.499 897.844,465.666 892.5,465.5C 892.346,469.025 893.679,471.859 896.5,474C 900.623,474.437 904.623,473.937 908.5,472.5C 908.799,474.604 908.466,476.604 907.5,478.5C 901.394,481.321 895.394,481.155 889.5,478C 888.789,476.745 887.956,475.579 887,474.5C 884.679,466.327 885.012,458.327 888,450.5C 889.73,448.598 891.563,446.931 893.5,445.5 Z"/></g>
<g><path style="opacity:1" fill="#fafcfa" d="M 922.5,445.5 C 926.584,445.043 930.417,445.71 934,447.5C 934.818,450.227 934.652,452.894 933.5,455.5C 928.602,450.954 924.769,451.621 922,457.5C 921.209,461.926 921.543,466.259 923,470.5C 926.883,474.463 930.549,474.13 934,469.5C 935.725,478.748 931.892,482.248 922.5,480C 917.941,478.073 915.441,474.573 915,469.5C 912.395,459.654 914.895,451.654 922.5,445.5 Z"/></g>
<g><path style="opacity:1" fill="#f8fbf8" d="M 970.5,445.5 C 972.467,445.261 974.301,445.594 976,446.5C 976.818,449.227 976.652,451.894 975.5,454.5C 971.849,453.263 969.349,454.596 968,458.5C 967.667,465.5 967.333,472.5 967,479.5C 964.959,480.423 962.792,480.756 960.5,480.5C 960.5,469.167 960.5,457.833 960.5,446.5C 962.5,446.5 964.5,446.5 966.5,446.5C 966.351,447.552 966.517,448.552 967,449.5C 968.376,448.295 969.542,446.962 970.5,445.5 Z"/></g>
<g><path style="opacity:1" fill="#f4f9f5" d="M 1001.5,445.5 C 1004.52,445.335 1007.52,445.502 1010.5,446C 1014.44,447.965 1015.44,450.965 1013.5,455C 1011.41,454.309 1009.24,453.476 1007,452.5C 1004.85,452.643 1003.18,453.643 1002,455.5C 1001.1,460.949 1001.44,466.282 1003,471.5C 1003.8,472.804 1004.97,473.471 1006.5,473.5C 1009.28,472.941 1011.62,471.608 1013.5,469.5C 1016.05,475.215 1014.38,478.715 1008.5,480C 1000.83,481.352 995.997,478.185 994,470.5C 991.441,460.425 993.941,452.092 1001.5,445.5 Z"/></g>
<g><path style="opacity:1" fill="#f6faf6" d="M 1059.5,445.5 C 1073.17,444.965 1078.5,451.465 1075.5,465C 1070.18,465.499 1064.84,465.666 1059.5,465.5C 1058.85,469.355 1060.18,472.188 1063.5,474C 1067.54,474.048 1071.54,473.548 1075.5,472.5C 1076.13,476.158 1074.79,478.658 1071.5,480C 1061.78,483.056 1055.28,479.889 1052,470.5C 1050.69,463.129 1051.69,456.129 1055,449.5C 1056.67,448.267 1058.17,446.933 1059.5,445.5 Z"/></g>
<g><path style="opacity:1" fill="#fafcfa" d="M 144.5,445.5 C 146.5,445.5 148.5,445.5 150.5,445.5C 150.334,453.507 150.5,461.507 151,469.5C 152.305,472.306 154.472,473.14 157.5,472C 158.701,471.097 159.535,469.931 160,468.5C 160.333,461.167 160.667,453.833 161,446.5C 163.041,445.577 165.208,445.244 167.5,445.5C 167.667,456.838 167.5,468.172 167,479.5C 163.616,481.273 161.449,480.273 160.5,476.5C 155.917,481.346 151.083,481.68 146,477.5C 145.333,476.167 144.667,474.833 144,473.5C 143.195,464.089 143.362,454.756 144.5,445.5 Z"/></g>
<g><path style="opacity:1" fill="#f6faf6" d="M 547.5,445.5 C 549.792,445.244 551.959,445.577 554,446.5C 555.867,453.933 558.034,461.267 560.5,468.5C 562.66,461.198 564.827,453.865 567,446.5C 569,445.167 571,445.167 573,446.5C 570.597,457.722 567.763,468.889 564.5,480C 563,480.167 561.5,480.333 560,480.5C 558.019,480.371 556.353,479.704 555,478.5C 552.02,467.582 549.52,456.582 547.5,445.5 Z"/></g>
<g><path style="opacity:1" fill="#fbfdfb" d="M 578.5,445.5 C 580.467,445.261 582.301,445.594 584,446.5C 584.667,457.5 584.667,468.5 584,479.5C 581.959,480.423 579.792,480.756 577.5,480.5C 577.189,468.753 577.522,457.086 578.5,445.5 Z"/></g>
<g><path style="opacity:1" fill="#f8fbf8" d="M 738.5,445.5 C 740.5,445.5 742.5,445.5 744.5,445.5C 744.09,454.25 744.59,462.916 746,471.5C 749.206,473.124 751.872,472.458 754,469.5C 754.333,461.833 754.667,454.167 755,446.5C 757.041,445.577 759.208,445.244 761.5,445.5C 761.667,456.838 761.5,468.172 761,479.5C 757.613,481.318 755.613,480.318 755,476.5C 750.281,481.366 745.281,481.699 740,477.5C 739.027,475.608 738.36,473.608 738,471.5C 737.198,462.755 737.364,454.088 738.5,445.5 Z"/></g>
<g><path style="opacity:1" fill="#ebf5ec" d="M 981.5,445.5 C 983.591,445.318 985.591,445.652 987.5,446.5C 988.666,457.485 988.832,468.485 988,479.5C 985.667,480.833 983.333,480.833 981,479.5C 980.19,468.091 980.357,456.757 981.5,445.5 Z"/></g>
<g><path style="opacity:1" fill="#fbfdfb" d="M 1020.5,445.5 C 1022.47,445.261 1024.3,445.594 1026,446.5C 1026.67,457.5 1026.67,468.5 1026,479.5C 1023.96,480.423 1021.79,480.756 1019.5,480.5C 1019.19,468.753 1019.52,457.086 1020.5,445.5 Z"/></g>
<g><path style="opacity:1" fill="#44a14c" d="M 215.5,451.5 C 220.58,451.62 222.913,454.287 222.5,459.5C 218.833,459.5 215.167,459.5 211.5,459.5C 211.53,456.148 212.863,453.482 215.5,451.5 Z"/></g>
<g><path style="opacity:1" fill="#3f9f48" d="M 291.5,451.5 C 296.989,451.325 299.322,453.992 298.5,459.5C 295.167,459.5 291.833,459.5 288.5,459.5C 288.016,456.212 289.016,453.545 291.5,451.5 Z"/></g>
<g><path style="opacity:1" fill="#41a04a" d="M 415.5,451.5 C 421.329,451 423.663,453.666 422.5,459.5C 419.167,459.5 415.833,459.5 412.5,459.5C 412.394,456.385 413.394,453.719 415.5,451.5 Z"/></g>
<g><path style="opacity:1" fill="#41a049" d="M 508.5,451.5 C 514.329,451 516.663,453.666 515.5,459.5C 512.167,459.5 508.833,459.5 505.5,459.5C 505.394,456.385 506.394,453.719 508.5,451.5 Z"/></g>
<g><path style="opacity:1" fill="#45a24d" d="M 624.5,451.5 C 630.118,451.118 632.785,453.785 632.5,459.5C 628.833,459.5 625.167,459.5 621.5,459.5C 621.722,456.496 622.722,453.829 624.5,451.5 Z"/></g>
<g><path style="opacity:1" fill="#47a34e" d="M 791.5,451.5 C 796.649,451.651 798.982,454.318 798.5,459.5C 794.833,459.5 791.167,459.5 787.5,459.5C 787.278,455.944 788.611,453.277 791.5,451.5 Z"/></g>
<g><path style="opacity:1" fill="#42a04a" d="M 895.5,451.5 C 901.329,451 903.663,453.666 902.5,459.5C 899.167,459.5 895.833,459.5 892.5,459.5C 892.016,456.212 893.016,453.545 895.5,451.5 Z"/></g>
<g><path style="opacity:1" fill="#3e9f47" d="M 121.5,452.5 C 125.49,451.616 128.323,452.949 130,456.5C 130.667,460.5 130.667,464.5 130,468.5C 128.923,473.115 126.09,474.615 121.5,473C 120.107,471.829 119.273,470.329 119,468.5C 117.834,462.753 118.668,457.419 121.5,452.5 Z"/></g>
<g><path style="opacity:1" fill="#41a04a" d="M 1062.5,451.5 C 1067.58,451.62 1069.91,454.287 1069.5,459.5C 1065.83,459.5 1062.17,459.5 1058.5,459.5C 1058.78,456.281 1060.11,453.615 1062.5,451.5 Z"/></g>
<g><path style="opacity:1" fill="#41a049" d="M 186.5,452.5 C 188.39,452.297 189.89,452.963 191,454.5C 192.555,459.382 192.888,464.382 192,469.5C 189,474.833 186,474.833 183,469.5C 182.333,465.167 182.333,460.833 183,456.5C 184.376,455.295 185.542,453.962 186.5,452.5 Z"/></g>
<g><path style="opacity:1" fill="#41a04a" d="M 384.5,452.5 C 387.785,452.269 390.285,453.603 392,456.5C 392.667,460.5 392.667,464.5 392,468.5C 388.404,475.089 385.071,475.089 382,468.5C 380.834,462.753 381.668,457.419 384.5,452.5 Z"/></g>
<g><path style="opacity:1" fill="#96cb9c" d="M 70.5,460.5 C 73.1667,460.5 75.8333,460.5 78.5,460.5C 78.815,464.371 78.4816,468.038 77.5,471.5C 77.5,468.167 77.5,464.833 77.5,461.5C 74.9407,461.802 72.6074,461.468 70.5,460.5 Z"/></g>
<g><path style="opacity:1" fill="#40a048" d="M 716.5,465.5 C 718.833,465.5 721.167,465.5 723.5,465.5C 724.584,470.145 722.917,473.145 718.5,474.5C 714.024,472.461 713.357,469.461 716.5,465.5 Z"/></g>
</svg>
