<?xml version="1.0" encoding="iso-8859-1"?>
<!-- Uploaded to: SVG Repo, www.svgrepo.com, Generator: SVG Repo Mixer Tools -->
<svg fill="#000000" version="1.1" id="Layer_1" xmlns="http://www.w3.org/2000/svg" xmlns:xlink="http://www.w3.org/1999/xlink" 
	 viewBox="0 0 512 512" xml:space="preserve">
<g>
	<g>
		<path d="M459.216,184.742V77.791L348.234,0H52.783v184.742H26.392v205.856h26.392V512h406.433V390.598h26.392V184.742H459.216z
			 M353.649,23.151l72.278,50.746h-72.278V23.151z M68.618,15.835h269.196v73.897h105.567v95.01H68.618V15.835z M443.381,496.165
			H68.618V390.598h374.763V496.165z M469.773,374.763H42.227V200.577h427.546V374.763z"/>
	</g>
</g>
<g>
	<g>
		<rect x="113.485" y="432.825" width="285.031" height="15.835"/>
	</g>
</g>
<g>
	<g>
		<rect x="435.464" y="216.412" width="21.113" height="15.835"/>
	</g>
</g>
<g>
	<g>
		<rect x="435.464" y="343.093" width="21.113" height="15.835"/>
	</g>
</g>
<g>
	<g>
		<rect x="55.423" y="343.093" width="21.113" height="15.835"/>
	</g>
</g>
<g>
	<g>
		<rect x="55.423" y="216.412" width="21.113" height="15.835"/>
	</g>
</g>
<g>
	<g>
		<rect x="92.371" y="47.505" width="21.113" height="15.835"/>
	</g>
</g>
<g>
	<g>
		<rect x="113.485" y="68.619" width="21.113" height="15.835"/>
	</g>
</g>
<g>
	<g>
		<rect x="134.598" y="47.505" width="21.113" height="15.835"/>
	</g>
</g>
<g>
	<g>
		<rect x="155.711" y="68.619" width="21.113" height="15.835"/>
	</g>
</g>
<g>
	<g>
		<rect x="176.825" y="47.505" width="21.113" height="15.835"/>
	</g>
</g>
<g>
	<g>
		<rect x="197.938" y="68.619" width="21.113" height="15.835"/>
	</g>
</g>
<g>
	<g>
		<rect x="92.371" y="89.732" width="21.113" height="15.835"/>
	</g>
</g>
<g>
	<g>
		<rect x="113.485" y="110.845" width="21.113" height="15.835"/>
	</g>
</g>
<g>
	<g>
		<rect x="134.598" y="89.732" width="21.113" height="15.835"/>
	</g>
</g>
<g>
	<g>
		<rect x="155.711" y="110.845" width="21.113" height="15.835"/>
	</g>
</g>
<g>
	<g>
		<rect x="176.825" y="89.732" width="21.113" height="15.835"/>
	</g>
</g>
<g>
	<g>
		<rect x="92.371" y="131.959" width="21.113" height="15.835"/>
	</g>
</g>
<g>
	<g>
		<rect x="134.598" y="131.959" width="21.113" height="15.835"/>
	</g>
</g>
<g>
	<g>
		<rect x="176.825" y="131.959" width="21.113" height="15.835"/>
	</g>
</g>
<g>
	<g>
		<rect x="197.938" y="110.845" width="21.113" height="15.835"/>
	</g>
</g>
<g>
	<g>
		<path d="M176.825,221.691h-63.34c-8.571,0-13.196,6.799-13.196,13.196V351.01h15.835v-60.701h60.701
			c8.571,0,13.196-6.799,13.196-13.196v-42.227C190.021,226.316,183.222,221.691,176.825,221.691z M174.186,274.474h-58.062v-36.948
			h58.062V274.474z"/>
	</g>
</g>
<g>
	<g>
		<path d="M285.031,219.052v100.96c-6.1-10.532-14.434-24.829-22.887-39.03c-9.624-16.167-17.524-29.065-23.483-38.335
			c-10.746-16.714-14.075-20.956-19.609-20.956c-8.571,0-13.196,6.799-13.196,13.196V351.01h15.835V245.589
			c12.3,18.576,37.036,60.174,59.105,98.793l2.279,3.989h4.595c6.397,0,13.196-4.625,13.196-13.196V219.052H285.031z"/>
	</g>
</g>
<g>
	<g>
		<path d="M366.845,300.866h34.309v2.639c0,1.401-0.391,34.309-34.309,34.309c-33.376,0-34.309-18.289-34.309-18.474v-63.239
			c0.095-2.096,1.885-18.576,34.309-18.576c32.651,0,34.237,16.711,34.31,18.618L401.155,256h15.835
			c0-11.867-10.481-34.309-50.144-34.309S316.701,244.133,316.701,256v63.34c0,9.543,9.008,34.309,50.144,34.309
			c25.858,0,38.216-13.862,44.03-25.49c6.045-12.09,6.114-24.147,6.114-24.654v-18.474h-50.144V300.866z"/>
	</g>
</g>
</svg>